<?xml version="1.0" encoding="UTF-8"?>
<svg width="32" height="32" viewBox="0 0 32 32" xmlns="http://www.w3.org/2000/svg">
  <!-- Green heart background -->
  <path d="M16 28C16 28 4 20 4 12C4 8 7.2 4.8 11.2 4.8C13.6 4.8 15.6 6 16 8C16.4 6 18.4 4.8 20.8 4.8C24.8 4.8 28 8 28 12C28 20 16 28 16 28Z" 
        fill="#22c55e" 
        stroke="#15803d" 
        stroke-width="0.5"/>
  
  <!-- Medical cross -->
  <rect x="22" y="8" width="2" height="6" fill="white" rx="0.5"/>
  <rect x="20" y="10" width="6" height="2" fill="white" rx="0.5"/>
  
  <!-- Circuit dots -->
  <circle cx="9" cy="11" r="1" fill="white"/>
  <circle cx="9" cy="15" r="1" fill="white"/>
  <circle cx="13" cy="13" r="1" fill="white"/>
  
  <!-- Circuit lines -->
  <line x1="9" y1="12" x2="9" y2="14" stroke="white" stroke-width="0.5"/>
  <line x1="10" y1="11" x2="12" y2="13" stroke="white" stroke-width="0.5"/>
  <line x1="10" y1="15" x2="12" y2="13" stroke="white" stroke-width="0.5"/>
</svg> 