<svg width="256" height="256" viewBox="0 0 256 256" fill="none" xmlns="http://www.w3.org/2000/svg">
  <!-- White background -->
  <rect width="256" height="256" fill="white"/>
  
  <!-- QR Code pattern -->
  <rect x="20" y="20" width="216" height="216" fill="black"/>
  <rect x="40" y="40" width="176" height="176" fill="white"/>
  <rect x="60" y="60" width="136" height="136" fill="black"/>
  <rect x="80" y="80" width="96" height="96" fill="white"/>
  <rect x="100" y="100" width="56" height="56" fill="black"/>
  <rect x="120" y="120" width="16" height="16" fill="white"/>
  
  <!-- Google Pay logo in center -->
  <circle cx="128" cy="128" r="24" fill="white"/>
  <path d="M118 128 C118 123.58 121.58 120 126 120 C130.42 120 134 123.58 134 128 C134 132.42 130.42 136 126 136 C121.58 136 118 132.42 118 128 Z" fill="#4285F4"/>
  <path d="M122 128 C122 125.79 123.79 124 126 124 C128.21 124 130 125.79 130 128 C130 130.21 128.21 132 126 132 C123.79 132 122 130.21 122 128 Z" fill="white"/>
  
  <!-- UPI text -->
  <text x="128" y="150" text-anchor="middle" font-family="Arial" font-size="12" fill="black">UPI</text>
</svg>
